<svg height="640" version="1.1" width="460" xmlns="http://www.w3.org/2000/svg" xmlns:xlink="http://www.w3.org/1999/xlink" viewBox="0 0 63.5 88" font-family="sans-serif">
  <desc>Created with Snap</desc>
  <defs></defs>
  <circle cx="31.75" cy="44" r="55" fill="#b22222" style="stroke-width: 0px;"></circle>
  <path d="M 31.75 44 L 86.73115287365565 42.560267843066974 A 31.75 44 0 0 1 86.73115287365565 45.439732156933026 Z" fill="#800000" style=""></path>
  <path d="M 31.75 44 L 86.58045335532204 48.31525026503147 A 31.75 44 0 0 1 86.27946737555956 51.17894057210284 Z" fill="#800000" style=""></path>
  <path d="M 31.75 44 L 85.8290199160175 54.02295390206811 A 31.75 44 0 0 1 85.2303456218722 56.83949501207479 Z" fill="#800000" style=""></path>
  <path d="M 31.75 44 L 84.48508541775061 59.620843958715746 A 31.75 44 0 0 1 83.59528201006981 62.3593772578574 Z" fill="#800000" style=""></path>
  <path d="M 31.75 44 L 82.56337428812077 65.04758878007993 A 31.75 44 0 0 1 81.39219063924233 67.67811032445623 Z" fill="#800000" style=""></path>
  <path d="M 31.75 44 L 80.0849411964081 70.24373181427846 A 31.75 44 0 0 1 78.64520903947508 72.73742105937718 Z" fill="#800000" style=""></path>
  <path d="M 31.75 44 L 77.07694037421086 75.15234303086581 A 31.75 44 0 0 1 75.38443371601792 77.48187859547963 Z" fill="#800000" style=""></path>
  <path d="M 31.75 44 L 73.5723281080017 79.7196426581601 A 31.75 44 0 0 1 71.64559040567582 81.85950166315646 Z" fill="#800000" style=""></path>
  <path d="M 31.75 44 L 69.60950166315646 83.89559040567582 A 31.75 44 0 0 1 67.4696426581601 85.8223281080017 Z" fill="#800000" style=""></path>
  <path d="M 31.75 44 L 65.23187859547963 87.63443371601792 A 31.75 44 0 0 1 62.90234303086581 89.32694037421086 Z" fill="#800000" style=""></path>
  <path d="M 31.75 44 L 60.48742105937718 90.89520903947508 A 31.75 44 0 0 1 57.99373181427846 92.3349411964081 Z" fill="#800000" style=""></path>
  <path d="M 31.75 44 L 55.42811032445623 93.64219063924233 A 31.75 44 0 0 1 52.797588780079934 94.81337428812077 Z" fill="#800000" style=""></path>
  <path d="M 31.75 44 L 50.1093772578574 95.84528201006981 A 31.75 44 0 0 1 47.370843958715746 96.73508541775061 Z" fill="#800000" style=""></path>
  <path d="M 31.75 44 L 44.58949501207479 97.4803456218722 A 31.75 44 0 0 1 41.77295390206811 98.0790199160175 Z" fill="#800000" style=""></path>
  <path d="M 31.75 44 L 38.92894057210284 98.52946737555956 A 31.75 44 0 0 1 36.06525026503147 98.83045335532204 Z" fill="#800000" style=""></path>
  <path d="M 31.75 44 L 33.189732156933026 98.98115287365565 A 31.75 44 0 0 1 30.310267843066985 98.98115287365565 Z" fill="#800000" style=""></path>
  <path d="M 31.75 44 L 27.434749734968534 98.83045335532204 A 31.75 44 0 0 1 24.57105942789716 98.52946737555956 Z" fill="#800000" style=""></path>
  <path d="M 31.75 44 L 21.727046097931883 98.0790199160175 A 31.75 44 0 0 1 18.910504987925208 97.4803456218722 Z" fill="#800000" style=""></path>
  <path d="M 31.75 44 L 16.129156041284254 96.73508541775061 A 31.75 44 0 0 1 13.390622742142593 95.84528201006981 Z" fill="#800000" style=""></path>
  <path d="M 31.75 44 L 10.702411219920066 94.81337428812077 A 31.75 44 0 0 1 8.071889675543776 93.64219063924234 Z" fill="#800000" style=""></path>
  <path d="M 31.75 44 L 5.506268185721527 92.3349411964081 A 31.75 44 0 0 1 3.0125789406228236 90.89520903947508 Z" fill="#800000" style=""></path>
  <path d="M 31.75 44 L 0.5976569691342064 89.32694037421088 A 31.75 44 0 0 1 -1.7318785954796354 87.63443371601792 Z" fill="#800000" style=""></path>
  <path d="M 31.75 44 L -3.9696426581600974 85.8223281080017 A 31.75 44 0 0 1 -6.109501663156458 83.89559040567582 Z" fill="#800000" style=""></path>
  <path d="M 31.75 44 L -8.145590405675811 81.85950166315646 A 31.75 44 0 0 1 -10.072328108001692 79.7196426581601 Z" fill="#800000" style=""></path>
  <path d="M 31.75 44 L -11.88443371601793 77.48187859547964 A 31.75 44 0 0 1 -13.576940374210864 75.15234303086581 Z" fill="#800000" style=""></path>
  <path d="M 31.75 44 L -15.14520903947507 72.73742105937718 A 31.75 44 0 0 1 -16.58494119640809 70.24373181427848 Z" fill="#800000" style=""></path>
  <path d="M 31.75 44 L -17.892190639242344 67.67811032445623 A 31.75 44 0 0 1 -19.06337428812077 65.04758878007993 Z" fill="#800000" style=""></path>
  <path d="M 31.75 44 L -20.09528201006981 62.35937725785742 A 31.75 44 0 0 1 -20.985085417750618 59.62084395871574 Z" fill="#800000" style=""></path>
  <path d="M 31.75 44 L -21.73034562187221 56.83949501207479 A 31.75 44 0 0 1 -22.3290199160175 54.022953902068124 Z" fill="#800000" style=""></path>
  <path d="M 31.75 44 L -22.779467375559577 51.178940572102825 A 31.75 44 0 0 1 -23.080453355322035 48.31525026503147 Z" fill="#800000" style=""></path>
  <path d="M 31.75 44 L -23.231152873655653 45.43973215693303 A 31.75 44 0 0 1 -23.231152873655653 42.560267843066974 Z" fill="#800000" style=""></path>
  <path d="M 31.75 44 L -23.080453355322035 39.684749734968534 A 31.75 44 0 0 1 -22.779467375559577 36.821059427897175 Z" fill="#800000" style=""></path>
  <path d="M 31.75 44 L -22.3290199160175 33.97704609793189 A 31.75 44 0 0 1 -21.73034562187221 31.160504987925208 Z" fill="#800000" style=""></path>
  <path d="M 31.75 44 L -20.98508541775061 28.37915604128424 A 31.75 44 0 0 1 -20.095282010069816 25.640622742142593 Z" fill="#800000" style=""></path>
  <path d="M 31.75 44 L -19.06337428812077 22.95241121992007 A 31.75 44 0 0 1 -17.892190639242337 20.321889675543755 Z" fill="#800000" style=""></path>
  <path d="M 31.75 44 L -16.584941196408096 17.756268185721535 A 31.75 44 0 0 1 -15.14520903947507 15.262578940622824 Z" fill="#800000" style=""></path>
  <path d="M 31.75 44 L -13.576940374210857 12.847656969134189 A 31.75 44 0 0 1 -11.88443371601793 10.518121404520365 Z" fill="#800000" style=""></path>
  <path d="M 31.75 44 L -10.072328108001699 8.280357341839903 A 31.75 44 0 0 1 -8.145590405675804 6.140498336843521 Z" fill="#800000" style=""></path>
  <path d="M 31.75 44 L -6.109501663156472 4.1044095943241885 A 31.75 44 0 0 1 -3.9696426581600903 2.177671891998287 Z" fill="#800000" style=""></path>
  <path d="M 31.75 44 L -1.7318785954796425 0.36556628398206925 A 31.75 44 0 0 1 0.5976569691341957 -1.3269403742108636 Z" fill="#800000" style=""></path>
  <path d="M 31.75 44 L 3.0125789406228236 -2.895209039475077 A 31.75 44 0 0 1 5.506268185721517 -4.3349411964080815 Z" fill="#800000" style=""></path>
  <path d="M 31.75 44 L 8.071889675543769 -5.642190639242337 A 31.75 44 0 0 1 10.702411219920073 -6.813374288120777 Z" fill="#800000" style=""></path>
  <path d="M 31.75 44 L 13.390622742142579 -7.845282010069809 A 31.75 44 0 0 1 16.129156041284254 -8.735085417750618 Z" fill="#800000" style=""></path>
  <path d="M 31.75 44 L 18.910504987925215 -9.480345621872218 A 31.75 44 0 0 1 21.72704609793187 -10.0790199160175 Z" fill="#800000" style=""></path>
  <path d="M 31.75 44 L 24.57105942789716 -10.52946737555957 A 31.75 44 0 0 1 27.434749734968538 -10.830453355322035 Z" fill="#800000" style=""></path>
  <path d="M 31.75 44 L 30.310267843066956 -10.981152873655653 A 31.75 44 0 0 1 33.18973215693302 -10.981152873655653 Z" fill="#800000" style=""></path>
  <path d="M 31.75 44 L 36.06525026503149 -10.830453355322035 A 31.75 44 0 0 1 38.92894057210282 -10.52946737555957 Z" fill="#800000" style=""></path>
  <path d="M 31.75 44 L 41.77295390206811 -10.0790199160175 A 31.75 44 0 0 1 44.589495012074806 -9.48034562187221 Z" fill="#800000" style=""></path>
  <path d="M 31.75 44 L 47.37084395871573 -8.735085417750625 A 31.75 44 0 0 1 50.1093772578574 -7.845282010069816 Z" fill="#800000" style=""></path>
  <path d="M 31.75 44 L 52.79758878007995 -6.813374288120762 A 31.75 44 0 0 1 55.42811032445621 -5.642190639242344 Z" fill="#800000" style=""></path>
  <path d="M 31.75 44 L 57.99373181427846 -4.334941196408096 A 31.75 44 0 0 1 60.4874210593772 -2.8952090394750627 Z" fill="#800000" style=""></path>
  <path d="M 31.75 44 L 62.90234303086579 -1.3269403742108778 A 31.75 44 0 0 1 65.23187859547963 0.36556628398206925 Z" fill="#800000" style=""></path>
  <path d="M 31.75 44 L 67.4696426581601 2.1776718919983082 A 31.75 44 0 0 1 69.60950166315645 4.104409594324167 Z" fill="#800000" style=""></path>
  <path d="M 31.75 44 L 71.6455904056758 6.140498336843521 A 31.75 44 0 0 1 73.5723281080017 8.280357341839903 Z" fill="#800000" style=""></path>
  <path d="M 31.75 44 L 75.38443371601792 10.518121404520343 A 31.75 44 0 0 1 77.07694037421086 12.847656969134196 Z" fill="#800000" style=""></path>
  <path d="M 31.75 44 L 78.64520903947508 15.262578940622824 A 31.75 44 0 0 1 80.08494119640808 17.756268185721517 Z" fill="#800000" style=""></path>
  <path d="M 31.75 44 L 81.39219063924233 20.32188967554377 A 31.75 44 0 0 1 82.56337428812077 22.952411219920073 Z" fill="#800000" style=""></path>
  <path d="M 31.75 44 L 83.59528201006981 25.64062274214258 A 31.75 44 0 0 1 84.48508541775061 28.379156041284254 Z" fill="#800000" style=""></path>
  <path d="M 31.75 44 L 85.23034562187222 31.160504987925215 A 31.75 44 0 0 1 85.8290199160175 33.97704609793187 Z" fill="#800000" style=""></path>
  <path d="M 31.75 44 L 86.27946737555956 36.82105942789716 A 31.75 44 0 0 1 86.58045335532204 39.68474973496854 Z" fill="#800000" style=""></path>
  <rect x="3" y="3" width="57.5" height="75" rx="0.5" ry="0.5" fill="#ff0000" style=""></rect>
  <rect x="4" y="4" width="55.5" height="73" rx="0" ry="0" stroke="#ffff00" fill="none" style="stroke-width: 1px;"></rect>
  <rect x="5" y="5" width="53.5" height="71" fill="#000000" style=""></rect>
  <rect x="56" y="1.25" width="6" height="5.5" rx="0.5" ry="0.5" fill="#ff0000" style=""></rect>
  <rect x="56.5" y="2" width="5" height="4.25" rx="0.25" ry="0.25" fill="#000000" style="opacity: 0.85;"></rect>
  <rect x="56.5" y="1.75" width="4.75" height="4.25" rx="0.25" ry="0.25" fill="#ffff00" style="opacity: 0.9;"></rect>
  <text x="59" y="5" fill="#000000" style="text-anchor: middle; font-size: 3.5px; font-weight: bold;">#1</text>
  <rect x="11.5" y="7.5" width="40" height="40" rx="0.5" ry="0.5" fill="#ffffff" style=""></rect>
  <image xlink:href="images/hakanson.png" preserveAspectRatio="none" x="12" y="8" width="39" height="39"></image>
  <text x="31.75" y="52" fill="#ffffff" style="text-anchor: middle; font-size: 2.75px;">Software Architect at Thomson Reuters.</text>
  <text x="31.75" y="56" fill="#ffffff" style="text-anchor: middle; font-size: 2.75px;">WestlawNext. Web Platform. JavaScript.</text>
  <text x="31.75" y="60" fill="#ffffff" style="text-anchor: middle; font-size: 2.75px;">Agile Software Development.</text>
  <text x="31.75" y="64" fill="#ffffff" style="text-anchor: middle; font-size: 2.75px;">Information Security. Speaker.</text>
  <text x="31.75" y="68" fill="#ffffff" style="text-anchor: middle; font-size: 2.75px;">Creator @LicPlateZone</text>
  <text x="56" y="74" fill="#87cefa" style="font-size: 2.5px; text-anchor: end;">http://about.me/kevin.hakanson</text>
  <image xlink:href="images/Twitter_logo_blue.png" preserveAspectRatio="none" x="6" y="71" width="14" height="14"></image>
  <text x="60" y="82" fill="#ffffff" style="text-anchor: end; font-size: 4.5px; font-weight: bold;">Kevin Hakanson</text>
  <text x="60" y="86" fill="#ffffff" style="text-anchor: end; font-size: 3.5px;">@hakanson</text>
</svg>